PathFileType	4	(X/Y/Z)	Patient4_TMGait_0pt6_01_right_05.trc.trc
DataRate	CameraRate	NumFrames	NumMarkers	Units	OrigDataRate	OrigDataStartFrame	OrigNumFrames
76.086956521739	76.086956521739	5	33	mm	76.086956521739	18	       141
Frame#	Time	Sacral			L.Shoulder			Chest			R.Shoulder			Neck			R.ASIS			L.ASIS			R.Thigh.Superior			R.Thigh.Lateral			R.Thigh.Inferior			R.Patella			L.Thigh.Superior			L.Thigh.Lateral			L.Thigh.Inferior			L.Patella			L.Shank.Superior			L.Shank.Lateral			L.Shank.Inferior			R.Shank.Superior			R.Shank.Lateral			R.Shank.Inferior			R.Heel			R.Midfoot.Superior			R.Midfoot.Lateral			R.Toe			L.Heel			L.Midfoot.Lateral			L.Midfoot.Superior			L.Toe			L.Elbow			L.Wrist			R.Elbow			R.Wrist			
		X1	Y1	Z1	X2	Y2	Z2	X3	Y3	Z3	X4	Y4	Z4	X5	Y5	Z5	X6	Y6	Z6	X7	Y7	Z7	X8	Y8	Z8	X9	Y9	Z9	X10	Y10	Z10	X11	Y11	Z11	X12	Y12	Z12	X13	Y13	Z13	X14	Y14	Z14	X15	Y15	Z15	X16	Y16	Z16	X17	Y17	Z17	X18	Y18	Z18	X19	Y19	Z19	X20	Y20	Z20	X21	Y21	Z21	X22	Y22	Z22	X23	Y23	Z23	X24	Y24	Z24	X25	Y25	Z25	X26	Y26	Z26	X27	Y27	Z27	X28	Y28	Z28	X29	Y29	Z29	X30	Y30	Z30	X31	Y31	Z31	X32	Y32	Z32	X33	Y33	Z33	

18	5.613428571429	618.003045577581	1001.985338422473	429.285725742468	804.710778563885	1423.156056069619	248.991434735012	893.310906735525	1363.497825228263	421.609953897765	793.059868975615	1443.057939004980	583.144757125637	777.008513052438	1490.878899353223	398.610985251505	832.301030051930	941.991022400220	567.988968301864	846.051346557285	957.044170833868	293.899321383212	909.118991015400	768.284989543820	542.286504934791	866.214263058056	646.215021841521	611.259377764688	955.776844721398	609.225210501926	532.576010990794	990.673003068219	523.751319093841	552.039498137920	850.545086309449	731.208623012857	323.723811422210	739.219119521997	634.431160361622	256.718075239901	797.227392768232	542.906717357144	324.026528001196	781.550929643060	476.532082786211	334.155994554332	751.145521108614	409.115765174249	325.137053939953	652.944853590218	302.736448337447	272.388199585201	690.489399005558	188.928661396338	347.287919661053	970.966748620610	434.839058819567	558.287925714224	911.431408317957	322.469997918094	617.664018072964	976.926606930994	234.582059834738	565.321069846781	876.068504865829	51.081387327132	531.620614306911	1039.274233016790	119.847359894264	573.670337615086	959.898600989878	44.678824682262	606.068634769482	1163.472911845417	80.681288455301	601.917135866901	551.280485025637	38.669126370920	390.769444575514	624.927616670279	34.861626627971	309.776882539137	708.708774613122	95.006244716047	336.872673872872	836.635506559992	42.760995516995	308.172159689882	856.368663234477	1076.368746404492	129.705113568891	1105.492299872964	1067.728118824618	182.001756427733	651.299007063050	1144.185455846599	722.098256908242	619.478207277942	890.445892103923	770.453542084458	
19	5.626571428571	619.585840068034	999.940582648065	430.596643073810	805.770017747139	1421.742480302173	251.359039640410	893.639803747378	1362.155117435652	424.342722451353	792.431200947194	1441.360737799177	585.441081701644	776.978751505613	1489.294964915316	400.968795208520	832.998755966554	940.543067773972	570.533327163447	847.931617203812	955.481582291548	296.378078894263	908.197855749634	764.926195311863	545.196879276525	862.948467392249	642.789477218547	612.588948595808	952.770205186535	605.733627907930	534.255466667961	987.062220365675	521.986414576546	552.189115865946	850.093690281380	729.241244908569	325.930113810229	737.738880327536	633.644169901113	258.190971801008	794.106363489296	541.456260899349	325.851075692520	777.653399251477	475.068889355280	335.730884094985	746.638383500956	407.956770848025	326.430012399762	647.563950106100	302.580416798917	273.255611465829	683.600425822671	188.232363146242	347.950479790847	970.598852134207	433.256478090897	558.555266844471	914.938496377583	318.368973058564	617.177187620617	984.314251655229	233.039089637560	564.760946965548	890.056050209408	46.682567611368	530.159235041899	1051.663950197148	119.309873453170	572.550264910784	974.052449750075	42.128364265210	604.547921198951	1176.913380655457	82.890891457883	600.434472950074	543.333100373955	38.447632670745	390.829606942639	616.990682012971	34.773828471595	309.880637539909	700.786160704312	94.891112141640	337.087940497210	828.768017541529	42.559900213101	308.160743138078	857.480087205672	1075.143617370463	132.166306406747	1105.674069928986	1077.865020130718	186.577314834142	650.257087983630	1142.183916316663	723.012068046093	618.864837166945	888.255000297606	770.842140705312	
20	5.639714285714	621.371446574946	997.754113818834	432.175926603974	806.673947415644	1420.318013448313	253.962819777571	893.944042649839	1360.826216638429	427.247165857739	791.775078261382	1439.489714204007	587.991687466004	776.858842914187	1487.628210978202	403.577603085723	834.091838344063	938.989068745532	573.154478791865	849.942256656047	953.842140027732	298.943710202475	908.096216711481	761.725372405388	548.176798983148	860.429797287255	639.383582866005	613.804435357132	950.693582798882	602.461540997659	535.985409582073	984.074248591104	519.967218698216	552.272170526654	849.939337647958	727.197789693762	328.154329120657	736.561528015646	632.753831109982	259.807862209087	791.418055948111	539.903879819349	327.752163691119	774.223162995857	473.411539578411	337.394522658304	742.480257706358	406.647173724931	327.804978033045	642.379684941607	302.418204179932	274.198502311564	676.768852209950	187.465592932333	348.618589417160	970.136346723204	431.303247068813	558.664875031275	917.277556427594	314.625775730959	616.462112552923	989.460056898266	231.347567221997	563.942788585752	899.897911974606	43.612946352451	528.530572821835	1060.508904800405	118.408815451630	571.141727029290	983.899453010587	40.310628788391	602.915532429675	1186.246876880369	83.541710131436	598.775413490497	535.360411455379	38.173296134963	390.845337803079	609.065867622528	34.616162007935	309.967802142294	692.874314567526	94.751929604701	337.274514658441	820.944206857321	42.349685492530	308.131680763867	858.573248032185	1073.952778940662	134.671020854330	1105.369172055961	1086.929040543383	191.326823240627	649.973240236196	1139.445927511996	724.020486046189	619.784048619484	885.146906795493	770.964643534626	
21	5.652857142857	623.293519003672	995.488369894106	434.028017319209	807.419489210594	1418.915892732292	256.805933450341	894.233671701541	1359.540664045175	430.324057936908	791.105810234551	1437.480372425966	590.804805276535	776.669718096606	1485.916371765741	406.440354678795	835.561277829624	937.361703637790	575.834504340346	852.032762528410	952.159669849909	301.589370471632	908.880439488081	758.795201547934	551.131501515514	858.808251335262	636.112450913219	614.866184232164	949.661702835017	599.531191196406	537.692147743392	981.863033484559	517.776073269423	552.268162331844	850.135196022719	725.121148089607	330.393767289738	735.778690182437	631.745257359200	261.587541961377	789.319418740105	538.246500976344	329.734390523666	771.444625051569	471.523721093384	339.144568458802	738.804601250432	405.160175024052	329.271018750159	637.492914644311	302.269310013896	275.222011119356	670.054754808144	186.636894438192	349.283294024760	969.717745662517	429.019135133793	558.599676340765	918.590133747216	311.223674039192	615.597839499403	992.463010896257	229.399156160289	562.893984523676	905.569777895212	41.618750352505	526.849029198015	1065.849437532350	116.989252377141	569.491405761227	989.466558259704	39.032547595971	601.284372142936	1191.591365743659	82.525858189565	596.994575094272	527.363572129605	37.917236871985	390.790988712294	601.158879353540	34.411412044099	310.022580270592	684.999502878464	94.586719340921	337.415883769224	813.167875710950	42.114218586723	308.085513767620	859.616144421429	1072.820295778739	137.212959153875	1104.693113850873	1094.818815963250	196.229353645777	650.439372139930	1136.035862903764	725.135778692594	622.221040151870	881.209764057856	770.859450616146	
22	5.666000000000	625.288553856242	993.215214699591	436.155712286843	808.014526771712	1417.583858568220	259.888894759235	894.527164873826	1358.332532229643	433.570507728053	790.458466775893	1435.385710878715	593.884472729880	776.443937134350	1484.213905856758	409.559044422217	837.371097658184	935.714459852420	578.557455621884	854.150175282575	950.485699070428	304.308367292688	910.545952578243	756.228342333927	553.967122831019	858.173818162121	633.099136186826	615.768511637744	949.705040770315	597.039614086772	539.310088334479	980.512196458833	515.507229699685	552.172392879099	850.728183049365	723.072786243870	332.651956942370	735.489254385268	630.612263682522	263.546527857330	787.980975500020	536.494973402292	331.801614771957	769.519900760803	469.383226660373	340.966336615913	735.756231040498	403.483488163944	330.829324303701	633.016190525806	302.173940892078	276.328035934131	663.537490204090	185.778465755127	349.930181311019	969.455888391101	426.489996387385	558.371614493251	919.078543228737	308.168674882374	614.691016532593	993.546308539756	227.168013101688	561.669101991456	907.329539966366	40.453325422909	525.228174882199	1067.927581398050	115.012243712608	567.673277147382	991.058848415944	38.134717404701	599.758577220775	1193.285286010554	79.945456221993	595.157697403870	519.353007239089	37.802616083547	390.640824067183	593.278354932114	34.214053192096	310.027846391517	677.202140913562	94.403464993737	337.491995076502	805.436565985409	41.833124871954	308.025572166320	860.563115518036	1071.777857546337	139.794213200657	1103.751424528627	1101.452377177768	201.260569935369	651.651851986204	1132.047164369146	726.361740141537	626.152144295104	876.568611259365	770.561760477561	
